<mxfile host="app.diagrams.net" modified="2021-02-17T09:45:52.892Z" agent="5.0 (Windows NT 10.0; Win64; x64) AppleWebKit/537.36 (KHTML, like Gecko) Chrome/88.0.4324.182 Safari/537.36" etag="IHKjeE-x_J4MhLp2FTgt" version="14.1.9" type="github">
  <diagram id="pou-O67h_zQgJiaFBYa0" name="Page-1">
    <mxGraphModel dx="1185" dy="662" grid="1" gridSize="10" guides="1" tooltips="1" connect="1" arrows="1" fold="1" page="1" pageScale="1" pageWidth="850" pageHeight="1100" math="0" shadow="0">
      <root>
        <mxCell id="0" />
        <mxCell id="1" parent="0" />
        <mxCell id="2ARR19vmxW5oYjQTu28k-1" value="Requisição HTTP" style="whiteSpace=wrap;html=1;aspect=fixed;" vertex="1" parent="1">
          <mxGeometry x="130" y="240" width="190" height="190" as="geometry" />
        </mxCell>
        <mxCell id="2ARR19vmxW5oYjQTu28k-2" value="" style="endArrow=classic;html=1;exitX=1;exitY=0.5;exitDx=0;exitDy=0;" edge="1" parent="1" source="2ARR19vmxW5oYjQTu28k-1">
          <mxGeometry width="50" height="50" relative="1" as="geometry">
            <mxPoint x="340" y="360" as="sourcePoint" />
            <mxPoint x="480" y="335" as="targetPoint" />
          </mxGeometry>
        </mxCell>
        <mxCell id="2ARR19vmxW5oYjQTu28k-3" value="email" style="whiteSpace=wrap;html=1;aspect=fixed;" vertex="1" parent="1">
          <mxGeometry x="480" y="240" width="190" height="190" as="geometry" />
        </mxCell>
        <mxCell id="2ARR19vmxW5oYjQTu28k-4" value="fraude?" style="whiteSpace=wrap;html=1;aspect=fixed;" vertex="1" parent="1">
          <mxGeometry x="480" y="455" width="190" height="190" as="geometry" />
        </mxCell>
        <mxCell id="2ARR19vmxW5oYjQTu28k-5" value="" style="endArrow=classic;html=1;exitX=1;exitY=0.5;exitDx=0;exitDy=0;entryX=0;entryY=0.5;entryDx=0;entryDy=0;" edge="1" parent="1" target="2ARR19vmxW5oYjQTu28k-4">
          <mxGeometry width="50" height="50" relative="1" as="geometry">
            <mxPoint x="320" y="429" as="sourcePoint" />
            <mxPoint x="480" y="429" as="targetPoint" />
          </mxGeometry>
        </mxCell>
        <mxCell id="2ARR19vmxW5oYjQTu28k-7" value="efetuar&lt;br&gt;pagamento" style="whiteSpace=wrap;html=1;aspect=fixed;" vertex="1" parent="1">
          <mxGeometry x="800" y="455" width="190" height="190" as="geometry" />
        </mxCell>
        <mxCell id="2ARR19vmxW5oYjQTu28k-8" value="" style="endArrow=classic;html=1;exitX=1;exitY=0.5;exitDx=0;exitDy=0;entryX=0;entryY=0.5;entryDx=0;entryDy=0;" edge="1" parent="1" target="2ARR19vmxW5oYjQTu28k-7">
          <mxGeometry width="50" height="50" relative="1" as="geometry">
            <mxPoint x="670" y="550" as="sourcePoint" />
            <mxPoint x="830" y="671" as="targetPoint" />
          </mxGeometry>
        </mxCell>
      </root>
    </mxGraphModel>
  </diagram>
</mxfile>
